# xmcd
#
# Track frame offsets:
#	150
#	17335
#	38423
#	51172
#	66336
#	81897
#	99731
#	120983
#	140606
#	156894
#	170930
#	185048
#	199366
#
# Disc length: 2846 seconds
#
# Revision: 1
# Processed by: cddbd v1.5.1PL0 Copyright (c) Steve Scherf et al.
# Submitted via: EasyCDDAExtractor 7.0.9.1
#
DISCID=b50b1c0d
DTITLE=Various Artist - För Alltid För Dig
DYEAR=2005
DGENRE=Country
TTITLE0=Flyg iväg
TTITLE1=Anna and mig
TTITLE2=You set my soul on fire
TTITLE3=Hej Martin (med Hasse Andersson)
TTITLE4=För alltid för dig
TTITLE5=Early morning rain
TTITLE6=Minnet av dig
TTITLE7=Mirakel
TTITLE8=Write this down
TTITLE9=Någon att älska
TTITLE10=Help me make it through the night
TTITLE11=Somliga säger
TTITLE12=Martin Nilsson - Green green grass of home
EXTD=
EXTT0=
EXTT1=
EXTT2=
EXTT3=
EXTT4=
EXTT5=
EXTT6=
EXTT7=
EXTT8=
EXTT9=
EXTT10=
EXTT11=
EXTT12=
PLAYORDER=
